<svg height='200' width='200'  fill="#000000" xmlns="http://www.w3.org/2000/svg" data-name="Layer 1" viewBox="0 0 100 100" x="0px" y="0px"><title>Artboard 35</title><path d="M46.5,33A97.88,97.88,0,0,0,6,23.55l-1.54,0A3.8,3.8,0,0,0,.75,27.39v55A3.79,3.79,0,0,0,1.9,85.08a3.9,3.9,0,0,0,2.75,1.08l1.36,0a94.56,94.56,0,0,1,38.08,8.66,3.33,3.33,0,0,0,4.7-3V36.62A4,4,0,0,0,46.5,33Zm-.71,58.76a.31.31,0,0,1-.15.27.32.32,0,0,1-.32,0A97.61,97.61,0,0,0,6,83.15l-1.43,0A.74.74,0,0,1,4,82.93a.82.82,0,0,1-.25-.59v-55a.82.82,0,0,1,.8-.82l1.46,0a94.82,94.82,0,0,1,39.23,9.18,1,1,0,0,1,.55.89ZM45,26.64a1.5,1.5,0,0,1-1.57,2.55C27.75,19.54,14.13,17,9.75,16.34l-.57,3.08a1.5,1.5,0,0,1-3-.54l.64-3.46a2.59,2.59,0,0,1,2.88-2.1C13.79,13.84,28.32,16.36,45,26.64Zm1.13-2.28C33.86,13.84,22.61,9.31,18.91,8l-1,2.59a1.5,1.5,0,1,1-2.79-1.12l1.18-3A2.59,2.59,0,0,1,19.5,5C22.89,6.19,35,10.83,48.09,22.08a1.5,1.5,0,1,1-2,2.28Zm49.39-.79-1.54,0A97.88,97.88,0,0,0,53.5,33a4,4,0,0,0-2.29,3.61V91.77a3.33,3.33,0,0,0,4.7,3A94.55,94.55,0,0,1,94,86.15l1.36,0a3.89,3.89,0,0,0,2.75-1.08,3.79,3.79,0,0,0,1.15-2.74v-55A3.8,3.8,0,0,0,95.53,23.57Zm.72,58.77a.82.82,0,0,1-.25.59.76.76,0,0,1-.59.23l-1.43,0a97.61,97.61,0,0,0-39.31,8.92.32.32,0,0,1-.32,0,.31.31,0,0,1-.15-.27V36.62a1,1,0,0,1,.55-.89A94.82,94.82,0,0,1,94,26.55l1.46,0h0a.82.82,0,0,1,.8.82ZM54.51,28.71A1.5,1.5,0,0,1,55,26.64C71.68,16.36,86.21,13.84,90.26,13.31a2.58,2.58,0,0,1,2.88,2.1l.64,3.46a1.5,1.5,0,0,1-3,.54l-.57-3.08c-4.38.61-18,3.2-33.68,12.86a1.5,1.5,0,0,1-2.06-.49ZM81.09,8c-3.7,1.3-15,5.84-27.23,16.36a1.5,1.5,0,0,1-2-2.28C65,10.83,77.11,6.19,80.5,5a2.59,2.59,0,0,1,3.24,1.49l1.18,3a1.5,1.5,0,1,1-2.79,1.12Z"></path></svg>