<?xml version="1.0" ?><svg viewBox="0 0 24 24" xmlns="http://www.w3.org/2000/svg"><title/><g data-name="Layer 2" id="Layer_2"><path d="M2.71,22.71l2.4-2.4a3.79,3.79,0,0,0,4.6-.6L12.41,17l-1-1,2.29-2.29-1.41-1.41L10,14.59,9.41,14l2.29-2.29-1.41-1.41L8,12.59l-1-1L4.29,14.29a3.82,3.82,0,0,0-.6,4.6l-2.4,2.4Zm3-7L7,14.41,9.59,17,8.29,18.29a1.83,1.83,0,0,1-2.59-2.59Z"/><path d="M18.89,3.69a3.82,3.82,0,0,0-4.6.6L11.59,7,17,12.41l2.71-2.71a3.82,3.82,0,0,0,.6-4.6l2.4-2.4L21.29,1.29Zm-.6,4.6L17,9.59,14.41,7l1.29-1.29a1.83,1.83,0,0,1,2.59,2.59Z"/></g></svg>