<?xml version="1.0" standalone="no"?>
<!DOCTYPE svg PUBLIC "-//W3C//DTD SVG 20010904//EN"
 "http://www.w3.org/TR/2001/REC-SVG-20010904/DTD/svg10.dtd">
<svg version="1.0" xmlns="http://www.w3.org/2000/svg"
 width="225.000000pt" height="132.000000pt" viewBox="0 0 225.000000 132.000000"
 preserveAspectRatio="xMidYMid meet">
<metadata>
Created by potrace 1.10, written by Peter Selinger 2001-2011
</metadata>
<g transform="translate(0.000000,132.000000) scale(0.050000,-0.050000)"
fill="#000000" stroke="none">
<path d="M2967 2337 c-448 -78 -571 -797 -177 -1028 257 -151 691 -24 541 159
l-47 58 -88 -43 c-224 -109 -396 25 -396 307 0 277 196 431 394 311 l65 -40
53 69 c29 38 47 83 41 99 -28 72 -245 133 -386 108z"/>
<path d="M3820 2345 c-407 -62 -437 -467 -46 -633 192 -82 226 -106 226 -161
0 -113 -152 -142 -312 -61 l-98 51 -67 -72 c-82 -89 -61 -124 115 -191 505
-190 874 352 392 577 -268 125 -280 133 -287 184 -14 99 144 135 288 66 l73
-34 48 59 c68 86 61 106 -57 159 -115 51 -198 68 -275 56z"/>
<path d="M200 1790 l0 -530 351 0 351 0 -6 95 -6 95 -225 6 -225 5 0 98 c0
161 1 161 203 161 l179 0 -6 85 -6 85 -180 10 -180 10 -6 105 c-7 119 -28 108
226 116 230 8 210 -1 210 99 l0 90 -340 0 -340 0 0 -530z"/>
<path d="M1120 1790 l0 -530 120 0 120 0 0 180 0 180 105 0 c277 0 435 133
435 364 0 259 -117 336 -514 336 l-266 0 0 -530z m523 291 c99 -122 8 -261
-172 -261 l-111 0 0 162 0 163 123 -9 c97 -7 131 -18 160 -55z"/>
<path d="M2100 1790 l0 -530 120 0 120 0 0 530 0 530 -120 0 -120 0 0 -530z"/>
<path d="M200 640 l0 -420 370 0 370 0 0 308 c0 340 -3 332 132 332 89 0 90
-2 94 -343 l4 -287 364 -5 365 -6 5 316 6 315 100 0 100 0 6 -315 5 -315 1065
5 1064 5 5 415 6 415 -370 0 -370 0 -5 -315 -6 -315 -105 -6 -105 -6 -2 76
c-1 42 -3 184 -5 316 l-3 240 -364 5 -365 6 -5 -316 -6 -315 -100 0 -100 0 -6
315 -5 315 -1070 0 -1069 0 0 -420z"/>
</g>
</svg>
