<?xml version="1.0" ?><svg id="Layer_1" style="enable-background:new 0 0 256 256;" version="1.1" viewBox="0 0 256 256" xml:space="preserve" xmlns="http://www.w3.org/2000/svg" xmlns:xlink="http://www.w3.org/1999/xlink"><g><path d="M220.4,84.8c-0.4-2.3-2.7-4-5-4l-3.5,0c-2.7,0-5.4,0-8.2,0c-1.8-7.3-4.7-14.3-8.7-20.8l1.1-1.1c2.4-2.4,4.9-4.9,7.3-7.3   c1.7-1.7,1.9-4.3,0.5-6.2c-6-8.3-13.3-15.6-21.6-21.5c-1.9-1.4-4.5-1.1-6.2,0.6c-1.5,1.5-3,3.1-4.6,4.6c-1.2,1.2-2.5,2.5-3.8,3.8   c-6.5-3.9-13.5-6.8-20.9-8.6c0-0.9,0-1.7,0-2.6l0-1.5c0-0.2,0-0.4,0-0.6l0-2.4c0-1.5,0-3,0-4.7c0-2.4-1.7-4.4-4-4.7   c-10.1-1.6-19.7-1.6-29.8,0c-2.4,0.4-4.1,2.5-4,5c0,1.5,0,3,0,4.5l0,2.4c0,0.2,0,0.4,0,0.6l0,1.5c0,0.9,0,1.8,0,2.6   c-7.3,1.8-14.3,4.7-20.9,8.6c-1.3-1.3-2.5-2.5-3.8-3.8c-1.5-1.5-3.1-3-4.6-4.6c-1.6-1.7-4.3-1.9-6.2-0.6C65.3,29.8,58,37.1,52,45.4   c-1.4,1.9-1.1,4.6,0.5,6.2c2.5,2.4,4.9,4.9,7.3,7.3l1.1,1.1c-3.9,6.5-6.8,13.5-8.7,20.8c-2.7,0-5.4,0-8.2,0l-3.8,0   c-2.4,0-4.4,1.7-4.7,4.1c-0.8,5.3-1.2,10.3-1.2,15.2c0,5.1,0.4,10.2,1.2,15.2c0.4,2.2,2.4,3.9,4.6,4c0.2,0,0.5,0,1,0   c2.4,0,4.7,0,7.1,0c1.3,0,2.6,0,3.9,0c1.9,7.4,4.8,14.4,8.8,21c-2.5,2.5-5,4.9-7.5,7.5c-0.4,0.4-0.8,0.8-1.1,1.2   c-1.5,1.7-1.6,4.1-0.3,5.9c6,8.2,13.2,15.4,21.5,21.3c1.9,1.4,4.8,0.9,6.5-0.9c1.6-1.7,3.3-3.3,4.9-5c1.1-1,2.1-2.1,3.1-3.1   c0.9,0.5,1.8,1.1,2.8,1.6c2.3,1.3,5.2,0.4,6.5-1.9s0.4-5.2-1.9-6.5c-2.1-1.1-3.9-2.2-5.4-3.3c-1.8-1.2-4.2-1-5.8,0.4l-0.8,0.6   c-0.1,0.1-0.2,0.2-0.3,0.3c-1.6,1.7-3.3,3.4-5,5.1c-0.8,0.8-1.6,1.6-2.4,2.4c-5-4-9.6-8.5-13.5-13.5c2.4-2.5,4.9-4.9,7.5-7.4   c0.5-0.5,1-1,1.3-1.5c1.1-1.6,1.1-3.7,0-5.3c-5.1-7.6-8.6-16-10.3-24.8c-0.4-2.2-2.4-3.9-4.7-3.9h-0.5c-2.4,0-4.8,0-7.2,0   c-1.3,0-2.6,0-3.8,0c-0.4-3.2-0.5-6.4-0.5-9.6c0-3.2,0.2-6.4,0.6-9.7c3.3,0,6.6,0,9.8,0.1c1,0.1,2.1,0,3.1-0.3   c1.8-0.5,3.1-1.9,3.4-3.7c1.7-8.7,5.1-16.8,10.1-24.3c1-1.6,1.1-3.6,0.1-5.2c-0.5-0.9-1.2-1.6-2-2.3c0,0-0.3-0.3-0.3-0.3l-2.1-2.1   c-1.5-1.5-2.9-3-4.4-4.4c4-5.1,8.6-9.6,13.7-13.6c0.6,0.6,1.1,1.1,1.7,1.7c1.8,1.8,3.6,3.5,5.2,5.2c1,1.1,2,1.8,3.2,2.2   c1.4,0.5,3,0.3,4.3-0.5c7.5-4.9,15.7-8.3,24.4-10c1.8-0.4,3.3-1.7,3.7-3.6c0.2-0.7,0.3-1.4,0.2-2.4c-0.1-1.7-0.1-3.4,0-5.2l0-2.2   c0-0.2,0-0.4,0-0.6l0-1.8c0-0.2,0-0.4,0-0.7c6.3-0.7,12.4-0.7,18.7,0c0,0.2,0,0.4,0,0.7l0,1.7c0,0.2,0,0.4,0,0.6l0,2.2   c0,1.7,0,3.4-0.1,5.4c0,0.8,0.1,1.5,0.3,2.2c0.4,1.8,1.9,3.2,3.7,3.6c8.7,1.7,16.9,5,24.4,10c1.3,0.8,2.8,1,4.3,0.5   c1.1-0.4,2.2-1.1,3.1-2.1c1.7-1.8,3.5-3.6,5.3-5.3c0.6-0.6,1.1-1.1,1.7-1.7c5.1,4,9.7,8.6,13.7,13.6c-1.5,1.5-3,3-4.4,4.4l-2.1,2.1   c0,0-0.3,0.3-0.3,0.3c-0.8,0.8-1.4,1.5-2,2.3c-1,1.6-0.9,3.6,0.1,5.2c5,7.5,8.4,15.6,10.1,24.3c0.4,1.8,1.7,3.2,3.4,3.7   c1,0.3,2,0.4,2.9,0.3c3.3-0.1,6.6-0.1,9.9-0.1c0.4,3.2,0.5,6.5,0.5,9.7c0,3.2-0.2,6.5-0.5,9.6c-1.3,0-2.6,0-3.8,0   c-2.4,0-4.8,0-7.2,0h-0.5c-2.3,0-4.2,1.6-4.7,3.9c-1.8,8.8-5.2,17.1-10.3,24.8c-1.1,1.6-1.1,3.7,0,5.3c0.3,0.5,0.7,0.9,1.3,1.5   c2.5,2.4,4.9,4.9,7.4,7.4c-4,5-8.5,9.5-13.5,13.5c-0.9-0.9-1.8-1.8-2.7-2.7c-1.6-1.6-3.2-3.1-4.7-4.7c-0.1-0.1-0.2-0.2-0.3-0.3   l-0.9-0.7c-1.6-1.4-4-1.5-5.7-0.3c-1.7,1.2-3.5,2.2-5.4,3.2c-2.3,1.3-3.2,4.2-1.9,6.5c1.3,2.3,4.2,3.2,6.5,1.9   c1-0.5,1.9-1.1,2.9-1.6c0.9,0.9,1.9,1.9,2.8,2.8c1.8,1.8,3.5,3.5,5.2,5.3c0.3,0.3,0.8,0.8,1.1,1c0.8,0.5,1.7,0.8,2.7,0.8   c1,0,2-0.3,2.8-0.9c8.3-5.9,15.5-13.1,21.4-21.3c1.3-1.8,1.2-4.3-0.3-5.9c-0.3-0.4-0.7-0.8-1.2-1.3c-2.5-2.5-4.9-5-7.4-7.4   c4-6.6,6.9-13.7,8.8-21c1.3,0,2.6,0,3.9,0c2.4,0,4.7,0,7.1,0c0.4,0,0.8,0,0.9,0c2.3,0,4.3-1.7,4.7-4c0.8-5,1.2-10.1,1.2-15.2   C221.6,94.9,221.2,89.8,220.4,84.8z"/><path d="M150.2,132.4c0-1.2-0.3-2.5-0.9-3.6l-14.4-27.2c-0.4-0.7-0.9-1.4-1.3-1.7c-1.5-1.5-3.5-2.4-5.4-2.3   c-2.2-0.1-4.2,0.8-5.4,2.1c-0.6,0.6-1.1,1.2-1.5,2l-14.4,27.2c-0.6,1.1-0.9,2.3-0.9,3.6l-0.4,100.5c-0.1,8.9,6.9,16.2,15.8,16.5   l6.9,0.2l6.6-0.2c8.9-0.3,15.8-7.5,15.8-16.5L150.2,132.4z M128,109.1l10.4,19.6h-20.7L128,109.1z M134.4,239.8l-6.3,0.2l-6.6-0.2   c-3.7-0.1-6.6-3.1-6.6-6.9l0.4-94.7h25.2l0.4,94.7C141,236.6,138.1,239.6,134.4,239.8z"/></g></svg>