<?xml version="1.0" ?><svg height="36" id="svg6390" version="1.1" width="36" xmlns="http://www.w3.org/2000/svg" xmlns:cc="http://creativecommons.org/ns#" xmlns:dc="http://purl.org/dc/elements/1.1/" xmlns:inkscape="http://www.inkscape.org/namespaces/inkscape" xmlns:rdf="http://www.w3.org/1999/02/22-rdf-syntax-ns#" xmlns:sodipodi="http://sodipodi.sourceforge.net/DTD/sodipodi-0.dtd" xmlns:svg="http://www.w3.org/2000/svg"><defs id="defs6392"/><g id="layer1" transform="translate(0,-1016.3622)"><g id="g3" transform="translate(-7,1019.3622)"><path d="m 13,7 24,0 c 0.5627,0 1,0.43738 1,1 l 0,15 c 0,0.56262 -0.4373,1 -1,1 l -24,0 c -0.5627,0 -1,-0.43738 -1,-1 L 12,8 c 0,-0.56262 0.4373,-1 1,-1 z m 2,1 c -1.0993,0 -2,0.90066 -2,2 l 0,11 c 0,1.09934 0.9007,2 2,2 l 10,0 c 1.0993,0 2,-0.90066 2,-2 L 27,10 C 27,8.90066 26.0993,8 25,8 z m 15,0 c -1.0994,0 -2,0.90063 -2,2 l 0,11 c 0,1.09936 0.9006,2 2,2 l 5,0 c 1.0994,0 2,-0.90064 2,-2 L 37,10 C 37,8.90063 36.0994,8 35,8 z M 15,9 25,9 c 0.5627,0 1,0.43738 1,1 l 0,11 c 0,0.56262 -0.4373,1 -1,1 l -10,0 c -0.5627,0 -1,-0.43738 -1,-1 l 0,-11 c 0,-0.56262 0.4373,-1 1,-1 z m 15,0 5,0 c 0.5626,0 1,0.43732 1,1 l 0,11 c 0,0.56266 -0.4374,1 -1,1 l -5,0 c -0.5626,0 -1,-0.43734 -1,-1 l 0,-11 c 0,-0.56268 0.4374,-1 1,-1 z m -10,1 c -0.9606,0 -1.75,0.78942 -1.75,1.75 0,0.96057 0.7894,1.75 1.75,1.75 0.9606,0 1.75,-0.78943 1.75,-1.75 C 21.75,10.78942 20.9606,10 20,10 z m 0,1 c 0.4201,0 0.75,0.32986 0.75,0.75 0,0.42013 -0.3299,0.75 -0.75,0.75 -0.4201,0 -0.75,-0.32987 -0.75,-0.75 C 19.25,11.32986 19.5799,11 20,11 z m 12,0 c -1.0994,0 -2,0.90064 -2,2 l 0,6 c 0,1.09936 0.9006,2 2,2 l 1,0 c 1.0994,0 2,-0.90064 2,-2 l 0,-6 c 0,-1.09936 -0.9006,-2 -2,-2 z m 0,1 1,0 c 0.5626,0 1,0.43734 1,1 l 0,6 c 0,0.56267 -0.4374,1 -1,1 l -1,0 c -0.5626,0 -1,-0.43733 -1,-1 l 0,-6 c 0,-0.56266 0.4374,-1 1,-1 z m 0.5,1 C 32.2239,13 32,13.22386 32,13.5 32,13.77614 32.2239,14 32.5,14 32.7761,14 33,13.77614 33,13.5 33,13.22386 32.7761,13 32.5,13 z m -16,1 C 15.6775,14 15,14.67749 15,15.5 15,16.3225 15.6775,17 16.5,17 17.3225,17 18,16.3225 18,15.5 18,14.67749 17.3225,14 16.5,14 z m 7,0 C 22.6775,14 22,14.67749 22,15.5 22,16.3225 22.6775,17 23.5,17 24.3225,17 25,16.3225 25,15.5 25,14.67749 24.3225,14 23.5,14 z m -7,1 C 16.7821,15 17,15.21793 17,15.5 17,15.78206 16.7821,16 16.5,16 16.2179,16 16,15.78206 16,15.5 16,15.21793 16.2179,15 16.5,15 z m 7,0 C 23.7821,15 24,15.21793 24,15.5 24,15.78206 23.7821,16 23.5,16 23.2179,16 23,15.78206 23,15.5 23,15.21793 23.2179,15 23.5,15 z m 8.9922,1.98633 c -0.2761,0.004 -0.4965,0.23166 -0.4922,0.50781 l 0,1 c -0.01,0.67616 1.0096,0.67616 1,0 l 0,-1 c 0,-0.28226 -0.2255,-0.51222 -0.5078,-0.50781 z M 16.5,18 C 15.6775,18 15,18.67749 15,19.5 15,20.3225 15.6775,21 16.5,21 17.3225,21 18,20.3225 18,19.5 18,18.67749 17.3225,18 16.5,18 z m 7,0 C 22.6775,18 22,18.67749 22,19.5 22,20.3225 22.6775,21 23.5,21 24.3225,21 25,20.3225 25,19.5 25,18.67749 24.3225,18 23.5,18 z m -7,1 C 16.7821,19 17,19.21793 17,19.5 17,19.78206 16.7821,20 16.5,20 16.2179,20 16,19.78206 16,19.5 16,19.21793 16.2179,19 16.5,19 z m 7,0 C 23.7821,19 24,19.21793 24,19.5 24,19.78206 23.7821,20 23.5,20 23.2179,20 23,19.78206 23,19.5 23,19.21793 23.2179,19 23.5,19 z" id="rect6904" style="font-size:medium;font-style:normal;font-variant:normal;font-weight:normal;font-stretch:normal;text-indent:0;text-align:start;text-decoration:none;line-height:normal;letter-spacing:normal;word-spacing:normal;text-transform:none;direction:ltr;block-progression:tb;writing-mode:lr-tb;text-anchor:start;baseline-shift:baseline;color:#000000;fill:#000000;fill-opacity:1;fill-rule:nonzero;stroke:none;visibility:visible;display:inline;overflow:visible;enable-background:accumulate;font-family:sans-serif"/></g></g></svg>