<svg height='200' width='200'  fill="#000000" xmlns:dc="http://purl.org/dc/elements/1.1/" xmlns:cc="http://creativecommons.org/ns#" xmlns:rdf="http://www.w3.org/1999/02/22-rdf-syntax-ns#" xmlns:svg="http://www.w3.org/2000/svg" xmlns="http://www.w3.org/2000/svg" xmlns:sodipodi="http://sodipodi.sourceforge.net/DTD/sodipodi-0.dtd" xmlns:inkscape="http://www.inkscape.org/namespaces/inkscape" version="1.1" x="0px" y="0px" viewBox="0 0 100 100"><g transform="translate(0,-952.36218)"><path style="text-indent:0;text-transform:none;direction:ltr;block-progression:tb;baseline-shift:baseline;color:#000000;enable-background:accumulate;" d="m 16,964.36216 c -3.28942,0 -6,2.71058 -6,6 l 0,16.00005 c 0,1.534 0.59971,2.9339 1.5625,4 -0.96279,1.066 -1.5625,2.4659 -1.5625,4 l 0,15.99999 c 0,1.534 0.59971,2.9339 1.5625,4 -0.96279,1.066 -1.5625,2.466 -1.5625,4 l 0,16 c 0,3.2894 2.71058,6 6,6 l 68,0 c 3.28942,0 6,-2.7106 6,-6 l 0,-16 c 0,-1.534 -0.59971,-2.934 -1.5625,-4 0.96279,-1.0661 1.5625,-2.466 1.5625,-4 l 0,-15.99999 c 0,-1.5341 -0.59971,-2.934 -1.5625,-4 0.96279,-1.0661 1.5625,-2.466 1.5625,-4 l 0,-16.00005 c 0,-3.28942 -2.71058,-6 -6,-6 l -68,0 z m 0,4 68,0 c 1.1426,0 2,0.8574 2,2 l 0,16.00005 c 0,1.1426 -0.8574,2 -2,2 l -68,0 c -1.1426,0 -2,-0.8574 -2,-2 l 0,-16.00005 c 0,-1.1426 0.8574,-2 2,-2 z m 8,5.00005 c -2.73774,0 -5,2.2622 -5,5 0,2.7377 2.26226,5 5,5 2.73774,0 5,-2.2623 5,-5 0,-2.7378 -2.26226,-5 -5,-5 z m 15,0 c -2.73774,0 -5,2.2622 -5,5 0,2.7377 2.26226,5 5,5 2.73774,0 5,-2.2623 5,-5 0,-2.7378 -2.26226,-5 -5,-5 z m 19,3 c -1.10457,0 -2,0.8954 -2,2 0,1.1045 0.89543,2 2,2 l 16,0 c 1.10457,0 2,-0.8955 2,-2 0,-1.1046 -0.89543,-2 -2,-2 l -16,0 z m -34,1 c 0.57598,0 1,0.424 1,1 0,0.5759 -0.42402,1 -1,1 -0.57598,0 -1,-0.4241 -1,-1 0,-0.576 0.42402,-1 1,-1 z m 15,0 c 0.57598,0 1,0.424 1,1 0,0.5759 -0.42402,1 -1,1 -0.57598,0 -1,-0.4241 -1,-1 0,-0.576 0.42402,-1 1,-1 z m -23,15 68,0 c 1.1426,0 2,0.8574 2,2 l 0,15.99999 c 0,1.1426 -0.8574,2 -2,2 l -68,0 c -1.1426,0 -2,-0.8574 -2,-2 l 0,-15.99999 c 0,-1.1426 0.8574,-2 2,-2 z m 8,5 c -2.73774,0 -5,2.2622 -5,4.99999 0,2.7377 2.26226,5 5,5 2.73774,0 5,-2.2623 5,-5 0,-2.73779 -2.26226,-4.99999 -5,-4.99999 z m 15,0 c -2.73774,0 -5,2.2622 -5,4.99999 0,2.7377 2.26226,5 5,5 2.73774,0 5,-2.2623 5,-5 0,-2.73779 -2.26226,-4.99999 -5,-4.99999 z m 19,2.99999 c -1.10457,0 -2,0.8954 -2,2 0,1.1045 0.89543,2 2,2 l 16,0 c 1.10457,0 2,-0.8955 2,-2 0,-1.1046 -0.89543,-2 -2,-2 l -16,0 z m -34,1 c 0.57598,0 1,0.424 1,1 0,0.5759 -0.42402,1 -1,1 -0.57598,0 -1,-0.4241 -1,-1 0,-0.576 0.42402,-1 1,-1 z m 15,0 c 0.57598,0 1,0.424 1,1 0,0.5759 -0.42402,1 -1,1 -0.57598,0 -1,-0.4241 -1,-1 0,-0.576 0.42402,-1 1,-1 z m -23,15 68,0 c 1.1426,0 2,0.8574 2,2 l 0,16 c 0,1.1426 -0.8574,2 -2,2 l -68,0 c -1.1426,0 -2,-0.8574 -2,-2 l 0,-16 c 0,-1.1426 0.8574,-2 2,-2 z m 8,5 c -2.73774,0 -5,2.2622 -5,5 0,2.7377 2.26226,5 5,5 2.73774,0 5,-2.2623 5,-5 0,-2.7378 -2.26226,-5 -5,-5 z m 15,0 c -2.73774,0 -5,2.2622 -5,5 0,2.7377 2.26226,5 5,5 2.73774,0 5,-2.2623 5,-5 0,-2.7378 -2.26226,-5 -5,-5 z m 19,3 c -1.10457,0 -2,0.8954 -2,2 0,1.1046 0.89543,2 2,2 l 16,0 c 1.10457,0 2,-0.8954 2,-2 0,-1.1046 -0.89543,-2 -2,-2 l -16,0 z m -34,1 c 0.57598,0 1,0.424 1,1 0,0.576 -0.42402,1 -1,1 -0.57598,0 -1,-0.424 -1,-1 0,-0.576 0.42402,-1 1,-1 z m 15,0 c 0.57598,0 1,0.424 1,1 0,0.576 -0.42402,1 -1,1 -0.57598,0 -1,-0.424 -1,-1 0,-0.576 0.42402,-1 1,-1 z" fill="#000000" fill-opacity="1" stroke="none" marker="none" visibility="visible" display="inline" overflow="visible"></path></g></svg>