<svg height='200' width='200'  fill="#000000" xmlns="http://www.w3.org/2000/svg" viewBox="0 0 100 100" x="0px" y="0px"><path d="m 8.6735 52.887084 l 14.79326 0 c .267514 0 .339683 -.319639 .201883 -.484519 c -.214329 -.256452 -.306846 -.370681 -.678713 -.884443 c -.74374 -1.027525 -1.494814 -2.618703 -1.372809 -4.67024 c .126773 -2.131816 1.249486 -3.843898 2.659096 -4.910578 c 1.409609 -1.066681 3.081856 -1.584307 4.666394 -1.584307 c 1.584542 0 3.256786 .517626 4.666395 1.584307 c 1.40961 1.06668 2.532323 2.778762 2.659095 4.910578 c .122006 2.051537 -.629069 3.642715 -1.372807 4.67024 c -.371869 .513762 -.464385 .627991 -.678715 .884443 c -.137798 .16488 -.06563 .484519 .201884 .484519 l 14.79326 0 l 0 -14.70866 c 0 -1.521573 .895401 -2.585237 2.005378 -2.291859 c .923756 .244166 2.203661 2.681013 5.514305 2.484129 c 3.310645 -.196884 5.014403 -3.319911 5.014403 -5.754643 c 0 -2.434732 -1.703758 -5.555838 -5.014403 -5.752721 c -3.310644 -.196873 -4.590549 2.23805 -5.514305 2.482206 c -1.109977 .293388 -2.005378 -.74528 -2.005378 -2.266864 l 0 -22.0786718 L 8.6735 39.989796 Z" overflow="visible"></path><path d="m 28.942611 41.927691 c -2.434732 0 -5.555837 1.703758 -5.752721 5.014403 c -.196874 3.310644 2.238051 4.590549 2.482208 5.514305 c .293387 1.109977 -.745281 2.005378 -2.266865 2.005378 l -14.7298109 0 l 0 40.538223 l 40.5382229 0 l 0 -14.79326 c 0 -.267512 -.319639 -.339683 -.484519 -.201883 c -.256451 .214329 -.370681 .306845 -.884443 .678713 c -1.027525 .743741 -2.618702 1.494814 -4.67024 1.372809 c -2.131816 -.126773 -3.843898 -1.249486 -4.910579 -2.659096 c -1.06668 -1.409609 -1.584304 -3.081855 -1.584304 -4.666394 c 0 -1.584541 .517624 -3.256786 1.584304 -4.666395 c 1.066681 -1.40961 2.778763 -2.532323 4.910579 -2.659095 c 2.051538 -.122006 3.642715 .629069 4.67024 1.372807 c .513762 .371869 .627992 .464385 .884443 .678715 c .16488 .137798 .484519 .06563 .484519 -.201884 l 0 -14.79326 l -14.70866 0 c -1.521573 0 -2.585237 -.895401 -2.291859 -2.005378 c .244166 -.923756 2.681013 -2.203661 2.484129 -5.514305 c -.196884 -3.310645 -3.319911 -5.014403 -5.754644 -5.014403 z"></path><path d="M 91.324643 39.989796 L 50.786416 5 l 0 22.140199 c 0 .267513 .319639 .339682 .484519 .201883 c .256452 -.214329 .370681 -.306845 .884443 -.678714 c 1.027525 -.743739 2.618703 -1.494813 4.67024 -1.372808 c 2.131816 .126773 3.843898 1.249485 4.910578 2.659096 c 1.066682 1.409609 1.584307 3.081855 1.584307 4.666395 c 0 1.584541 -.517626 3.256785 -1.584307 4.666394 c -1.06668 1.40961 -2.778762 2.532323 -4.910578 2.659095 c -2.051537 .122006 -3.642715 -.629069 -4.67024 -1.372808 c -.513762 -.371868 -.627991 -.464385 -.884443 -.678714 c -.16488 -.137798 -.484519 -.06563 -.484519 .201885 l 0 14.793259 l 14.70866 0 c 1.521573 0 2.585237 .895401 2.291859 2.005377 c -.244166 .923757 -2.681013 2.203661 -2.484129 5.514306 c .196884 3.310645 3.319911 5.014403 5.754643 5.014403 c 2.434732 0 5.555836 -1.703758 5.752721 -5.014403 c .196875 -3.310645 -2.23805 -4.590549 -2.482206 -5.514306 c -.293388 -1.109976 .745279 -2.005377 2.266864 -2.005377 l 14.729815 0" overflow="visible"></path><path d="m 50.788338 54.459855 l 0 14.70866 c 0 1.521573 -.895401 2.585237 -2.005377 2.291859 c -.923757 -.244166 -2.203661 -2.681013 -5.514306 -2.484129 c -3.310645 .196884 -5.014403 3.319911 -5.014403 5.754644 c 0 2.434731 1.703758 5.555835 5.014403 5.752721 c 3.310645 .196874 4.590549 -2.238051 5.514306 -2.482208 c 1.109976 -.293387 2.005377 .74528 2.005377 2.266865 l 0 14.729811 l 40.538224 0 l 0 -40.538223 l -14.793261 0 c -.267512 0 -.339682 .319639 -.201883 .484519 c .214329 .256451 .306846 .370681 .678714 .884443 c .74374 1.027525 1.494813 2.618702 1.372808 4.67024 c -.126773 2.131816 -1.249485 3.843898 -2.659096 4.910579 c -1.409609 1.06668 -3.081856 1.584304 -4.666395 1.584304 c -1.58454 0 -3.256785 -.517624 -4.666394 -1.584304 c -1.40961 -1.066681 -2.532323 -2.778763 -2.659095 -4.910579 c -.122006 -2.051538 .629069 -3.642715 1.372808 -4.67024 c .371868 -.513762 .464385 -.627992 .678714 -.884443 c .137798 -.16488 .06563 -.484519 -.201885 -.484519 z" overflow="visible"></path></svg>